<?xml version="1.0" encoding="utf-8"?>
<!-- Generator: Adobe Illustrator 24.3.0, SVG Export Plug-In . SVG Version: 6.00 Build 0)  -->
<svg version="1.1" id="Capa_1" xmlns="http://www.w3.org/2000/svg" xmlns:xlink="http://www.w3.org/1999/xlink" x="0px" y="0px"
	 viewBox="0 0 1920 1920" style="enable-background:new 0 0 1920 1920;" xml:space="preserve">
<g>
	<g>
		<polygon points="1016.58,978.66 941.49,996.46 941.49,1175.05 1193.33,1115.36 1193.33,936.76 1193.33,907.3 1016.58,949.2 		"/>
		<polygon points="1016.58,484.92 260.01,664.25 260.01,842.85 260.01,1129.03 260.01,1143.21 260.01,1157.99 260.01,1336.59 
			691.27,1234.37 691.27,1055.77 439.42,1115.46 439.42,1100.68 439.42,1086.51 439.42,800.33 1016.58,663.52 1016.58,706.46 
			1193.33,664.56 1193.33,621.62 1193.33,443.02 		"/>
	</g>
	<polygon points="1659.99,762.01 1659.99,583.41 726.67,804.64 726.67,983.24 726.67,1298.38 726.67,1476.98 1659.99,1255.74 
		1659.99,1077.15 906.08,1255.85 906.08,940.71 	"/>
</g>
</svg>
